<?xml version="1.0" encoding="utf-8"?>
<!-- Generator: Adobe Illustrator 16.0.0, SVG Export Plug-In . SVG Version: 6.00 Build 0)  -->
<!DOCTYPE svg PUBLIC "-//W3C//DTD SVG 1.1//EN" "http://www.w3.org/Graphics/SVG/1.1/DTD/svg11.dtd">
<svg version="1.1" id="Layer_1" xmlns="http://www.w3.org/2000/svg" xmlns:xlink="http://www.w3.org/1999/xlink" x="0px" y="0px"
	 width="300px" height="300px" viewBox="0 0 300 300" enable-background="new 0 0 300 300" xml:space="preserve">
<g>
	<path fill="#84181B" d="M211.241,53.245c31.147,0.006,37.396,49.799,20.913,80.762c-16.484,30.963-3.118,42.78,12.961,42.244
		c-0.513,6.844-17.412,17.369-39.432,8.421s-52.938-57.378-42.344-72.594C173.935,96.861,211.241,53.245,211.241,53.245z"/>
	<path fill="#650C11" d="M213.363,95.201c-3.076,11.312-13.104,35.916-9.879,49.131c3.222,13.213-28.917,5.13-28.917,5.13
		l-4.429-37.568L213.363,95.201z"/>
	<g>
		<path fill="#FAB684" d="M252.991,300c-0.325-6.364-2.545-40.335-2.886-44.773c-0.341-4.438-29.445,4.693-29.445,4.693
			c0.596,6.062,5.717,35.689,6.315,40.08H252.991z"/>
		<path fill="#128389" d="M130.668,145.007c-13.6,6.26-44.554,27.37-57.186,39.433c-12.633,12.064-17.566,41.067-5.918,37.727
			c15.478-4.438,36.188-13.314,48.936-24.354c12.745-11.038,22.646-45.862,19.802-48.708
			C133.458,146.259,130.668,145.007,130.668,145.007z"/>
		<path fill="#165C62" d="M128.108,155.82c-9.446,20.082-29.702,44.153-43.359,51.209c-7.007,3.622-9.445-1.138-9.104-8.079
			l-12.586,3.384c-3.587,11.23-2.824,21.934,4.506,19.832c15.478-4.438,36.188-13.314,48.936-24.354
			c3.376-2.924,6.553-7.517,9.346-12.742C128.514,168.833,131.39,148.842,128.108,155.82z"/>
		<path fill="#128389" d="M155.437,135.494c-7.526,1.774-16.574,5.303-24.768,9.513c-3.869,11.608-6.544,20.713-12.614,32.043
			c-9.437,17.609-6.675,35.558,3.584,48.061c0.894,21.751-6.049,58.852-11.521,74.89H210.23
			c-7.695-25.141-11.108-52.909-5.121-83.716c4.631,12.771,9.944,32.74,14.084,44.929c10.655,1.81,27.612-0.809,33.798-4.427
			c-3.227-42.357-16.884-78.89-34.823-97.991c-10.625-8.894-24.396-18.453-36.752-20.74
			C173.516,146.828,151.779,141.821,155.437,135.494z"/>
		<path fill="#F69868" d="M247.316,300h5.675c-0.325-6.364-2.545-40.335-2.886-44.773c-0.341-4.438-29.445,4.693-29.445,4.693
			c0.16,1.63,0.647,4.966,1.287,9.056C242.977,267.503,246.518,277.281,247.316,300z"/>
		<path fill="#165C62" d="M162.959,300h47.271c-7.695-25.141-11.108-52.909-5.121-83.716c-3.059-6.55-6.387-15.427-5.106-26.693
			c-20.911,48.565-49.333,15.106-65.465,28.679c41.054,8.876,47.456,21.594,48.993,37.981
			C185.066,272.64,178.238,290.393,162.959,300z"/>
		<path fill="#165C62" d="M219.578,160.344c17.129,34.744,16.491,86.105-0.276,100.887c10.662,1.774,27.523-0.838,33.689-4.444
			C249.849,215.545,236.819,179.83,219.578,160.344z"/>
		<g>
			<path fill="#FAB684" d="M69.386,134.196c3.278-6.409,7.229-11.832,9.56-15.933c4.381-7.711,2.161-15.052-6.374-20.172
				c-0.456-6.164,0.699-18.064,0.854-21.936c0.171-4.267-3.243-5.122-5.377,0.086c-2.626,6.406-1.945,16.112-2.538,19.91
				c-3.181-1.133-5.998,0.403-7.021,3.902c-1.195-2.816-5.719-0.618-6.06,3.463c-8.536-5.084-6.829,21.034,3.983,29.541
				c-9.702,41.51-13.453,92.008,5.319,91.526C81.705,224.072,79.827,184.785,69.386,134.196z"/>
			<path fill="#F69868" d="M49.128,110.525c1.166,2.077,3.229,5.339,5.064,4.267c1.063-0.619,1.293-1.728,0.909-2.446
				c-0.54-1.016-1.349-2.411-1.479-4.097c0.822,2.829,3.499,6.572,6.203,5.064c3.008-1.678-1.025-4.837-1.082-8.052
				c1.617,5.206,5.121,6.541,6.999,5.719c1.878-0.824,3.329-4.012,0.968-5.011c-1.402-0.595-6.942-3.098-3.87-6.996
				c-2.22,3.13,2.105,5.634,6.031,6.146c3.928,0.513,3.472,3.585,0.342,5.634c-3.129,2.048-8.239,5.861-8.023,12.917
				c-2.845,0.341-2.446-5.008-7.347-6.016C49.994,116.862,48.643,113.028,49.128,110.525z"/>
			<path fill="#F69868" d="M69.386,134.196c3.278-6.409,7.229-11.832,9.56-15.933c3.037-5.348,2.898-10.517-0.318-14.891
				c1.016,3.236,0.446,5.945-0.85,10.424c-2.395,8.279-8.675,14.698-11.096,20.229c2.22,21.51,7.255,41.737,7.255,58.04
				c0,17.281-12.637,36.053-22.89,22.711c2.104,6.262,5.553,9.94,10.685,9.809C81.705,224.072,79.827,184.785,69.386,134.196z"/>
			<path fill="#F69868" d="M63.695,98.349c3.893,0.527,6.911-0.992,9.418,0.079c-0.178-0.111-0.356-0.225-0.541-0.336
				c-0.078-1.061-0.11-2.291-0.105-3.62c-1.76,0.084-4.417-0.134-6.737-0.817c-0.051,0.98-0.114,1.831-0.219,2.498
				c-1.368-0.488-2.668-0.479-3.787-0.036C61.533,97.249,62.264,98.154,63.695,98.349z"/>
			<path fill="#F69868" d="M48.66,120.429c1.535,4.963,4.134,9.783,7.753,12.63c-0.003,0.012-0.006,0.021-0.008,0.033
				c1.396,0.445,2.92,0.642,4.57,0.507C55.048,131.702,51.06,125.758,48.66,120.429z"/>
		</g>
		<path fill="#124C50" d="M205.177,216.614c-4.116-15.825-5.101-29.037-3.034-41.845c-2.653,7.987-3.664,11.372-3.253,18.459
			c-2.065-6.32-2.281-11.184-2.877-15.001C194.265,187.05,198.025,201.658,205.177,216.614z"/>
	</g>
	<path fill="#A82224" d="M233.339,78.54c7.199,11.839,7.013,34.427-4.279,52.456C233.69,113.477,236.036,95.119,233.339,78.54z"/>
	<path fill="#A82224" d="M227.95,88.502c4.491,13.107-0.533,35.13-15.431,50.318C220.801,122.701,227.027,105.273,227.95,88.502z"/>
	<path fill="#CBD7CC" d="M183.396,129.762c-5.689-3.084-22.419-3.176-30.442-2.164c-6.957,0.88-6.884,12.86,3.415,13.259
		c10.298,0.399,19.687,0,24.068-2.333S186.409,131.393,183.396,129.762z"/>
	<path fill="#F8AD84" d="M179.869,121.965c-0.243,1.839-0.399,14.625-0.285,17.185c0.114,2.561-16.104,10.243-18.606,13.657
		c-6.771-5.349-10.357-16.217-10.357-16.217s4.04,1.193,4.666-1.992c0.626-3.187,0.854-10.242,0.513-12.12
		C155.458,120.6,179.869,121.965,179.869,121.965z"/>
	<path fill="#F08262" d="M155.908,127.959c0.088-2.363,0.06-4.555-0.109-5.481c-0.341-1.878,24.07-0.513,24.07-0.513
		c-0.093,0.699-0.173,2.979-0.229,5.676C171.608,132.107,162.822,132.156,155.908,127.959z"/>
	<path fill="#FABF8E" d="M207.409,96.131c-2.68,10.246-19.769,33.234-46.432,29.362c-27.427-3.982-30.159-34.792-28.565-45.221
		c1.594-10.43,5.69-33.531,15.934-37.059c10.242-3.528,51.21-9.674,58.949,11.948C215.033,76.785,209.344,88.734,207.409,96.131z"/>
	<path fill="#F8AA7F" d="M156.539,77.525c4.044-6.063,6.605-17.646-3.637-19.379c-7.018-1.188-10.588,5.256-10.731,15.646
		C146.316,79.518,156.539,77.525,156.539,77.525z"/>
	<path fill="#F8AA7F" d="M178.56,81.565c-1.364-4.951,0.269-11.726,3.242-14.982c2.975-3.257,9.044-1.864,10.787-1.295
		c5.976,1.953,9.243,17.488,2.7,21.208C189.836,89.596,180.836,86.109,178.56,81.565z"/>
	<path fill="#FFFFFF" d="M179.186,81.622c2.163,5.007,11.097,5.235,15.079,3.527c0.513-2.561-0.363-8.562-5.634-9.673
		C182.429,74.168,179.299,79.631,179.186,81.622z"/>
	<circle fill="#922D49" cx="186.447" cy="80.693" r="4.089"/>
	<path opacity="0.3" fill="#231F20" d="M188.631,75.477c5.271,1.111,6.146,7.112,5.634,9.673
		c-2.986-6.699-11.465-8.156-15.079-3.527C179.299,79.631,182.429,74.168,188.631,75.477z"/>
	<path fill="#5E092D" d="M179.384,80.693c2.262-8.176,10.229-5.89,12.604-4.477c1.399,0.831,2.402,2.446,4.666-0.262
		c-0.214,1.299-1.251,2.071-1.935,2.708c1.483-0.1,2.703-0.597,4.325-1.765c-1.281,2.724-2.842,2.916-4.154,3.358
		c-0.058,0.626,0.27,2.589-0.626,4.893c0.126-5.377-3.148-8.612-6.743-9.006C183.096,75.657,180.835,78.147,179.384,80.693z"/>
	<path fill="#D46B53" d="M193.326,76.314c-1.622-3.797-7.426-4.992-11.14-1.147C185.9,73.006,190.21,73.006,193.326,76.314z"/>
	<path fill="#D46B53" d="M157.229,70.941c-1.622-5.248-6.451-7.344-10.547-4.125C150.607,65.288,154.625,66.205,157.229,70.941z"/>
	<path fill="#FFFFFF" d="M156.539,77.525c2.518-10.709-11.821-12.52-14.225-3.528C143.48,77.883,151.479,80.285,156.539,77.525z"/>
	<circle fill="#922D49" cx="150.405" cy="73.793" r="4.089"/>
	<path opacity="0.3" fill="#231F20" d="M156.756,76.311c-2.867-5.543-10.442-5.367-14.086-1.501l0,0
		c-0.151-0.263-0.271-0.533-0.355-0.813C144.624,65.358,157.95,66.693,156.756,76.311z"/>
	<path fill="#5E092D" d="M156.801,75.902c1.046-6.485-4.705-9.163-9.262-8.014c-1.385,0.349-2.066-0.321-3.12-1.402
		c0.285,1.166,0.513,1.535,1.081,2.133c-1.394-0.38-2.304-1.166-3.328-2.475c0.426,1.38,1.105,2.436,2.134,3.414
		c-1.118,1.438-1.698,2.59-2.003,4.154C146.316,66.816,155.984,67.055,156.801,75.902z"/>
	<path fill="#B43026" d="M197.138,69.988c-4.218-5.34-10.622-5.938-16.387-2.893C185.771,61.083,194.574,61.635,197.138,69.988z"/>
	<path fill="#B43026" d="M159.998,64.009c-4.455-5.084-9.331-6.374-14.088-3.402C149.818,54.956,157.139,55.495,159.998,64.009z"/>
	<path fill="#BD4C35" d="M161.774,94.881c-5.535-3.543-4.892-7.729-0.436-9.17c4.247-1.372,5.315-5.299,7.277-16.723
		c-3.286,12.192-4.271,14.658-7.669,15.705C155.173,86.473,154.918,92.319,161.774,94.881z"/>
	<path fill="#BD4C35" d="M168.204,95.201c-1.161-0.622-1.708-1.289-2.391-0.891s-1.164-0.945-0.512-1.081
		C166.397,93.002,168.02,93.771,168.204,95.201z"/>
	<circle fill="#FFFFFF" cx="188.233" cy="82.803" r="0.711"/>
	<circle fill="#FFFFFF" cx="183.98" cy="80.583" r="1.536"/>
	<circle fill="#FFFFFF" cx="152.19" cy="75.902" r="0.712"/>
	<circle fill="#FFFFFF" cx="147.937" cy="73.684" r="1.537"/>
	<path fill="#D46B53" d="M163.025,116.218c-1.142-2.038-4.382-2.446-5.975-1.064C159.357,114.926,161.312,115.281,163.025,116.218z"
		/>
	<path fill="#E9E4DC" d="M160.978,152.807c3.072-4.496,14.396-12.689,19.632-17.299c2.34-2.062,3.926-3.869,2.787-5.746
		c2.759,1.393,6.828,5.348,3.528,10.639c-3.83,6.143-7.056,8.252-12.632,12.064c0.568-4.894-1.936-6.032-5.862-4.098
		C165.342,149.89,163.766,151.042,160.978,152.807z"/>
	<path fill="#E9E4DC" d="M160.978,152.807c-7.706-9.048-12.347-23.614-8.023-25.209c-11.267,0-11.267,10.129-3.415,23.615
		C150.166,145.921,154.035,147.97,160.978,152.807z"/>
	<path fill="#F59B6F" d="M202.801,62.018c0,0,1.965-3.359,5.287-4.527c6.534,20.159,1.186,31.515-0.679,38.641
		c-2.68,10.246-19.769,33.234-46.432,29.362c-3.196-0.464-6.057-1.293-8.615-2.411C182.658,127.971,205.282,104.277,202.801,62.018z
		"/>
	<path fill="#F8AA7F" d="M166.599,88.963c3.505-0.605,5.66,2.746,3.505,5.232C170.893,91.207,169.315,89.509,166.599,88.963z"/>
	<g>
		<path fill="#A82224" d="M198.113,112.736c20.143-5.805,38.989-33.97,34.994-53.772c-4.097-20.313-14.339-35.678-23.045-34.483
			c-1.536-9.56-38.345-23.778-60.087-10.072c-23.558,14.852-33.287,60.26-19.461,84.5c0.341-23.557,5.975-43.188,22.021-55.138
			c0.255,3.073-1.451,6.401-4.95,10.242c8.449,1.878,17.327-2.134,21.679-5.804c0.768,2.987-0.428,6.487-2.562,9.048
			c12.198-0.342,18.095-3.072,22.363-10.583c1.194,8.875,7.34,20.143,15.704,23.728c0.778-2.794,1.025-3.927,3.073-6.659
			C209.381,75.864,210.745,101.128,198.113,112.736z"/>
		<path fill="#BC3027" d="M199.138,23.969c9.814,5.889,11.267,24.838,4.609,35.422C204.771,47.355,203.234,31.907,199.138,23.969z"
			/>
		<path fill="#BC3027" d="M208.952,29.857c14.256,11.268,18.438,45.323,4.185,62.82C218.598,71.766,218.427,47.27,208.952,29.857z"
			/>
		<path fill="#BC3027" d="M195.638,29.825c5.549,5.239,4.539,19.151,1.562,25.088C193.504,48.892,193.512,34.809,195.638,29.825z"/>
		<path fill="#BC3027" d="M188.128,22.604c2.646,14.169-2.351,28.551-15.791,30.642C179.506,43.174,185.566,31.48,188.128,22.604z"
			/>
		<path fill="#BC3027" d="M176.86,26.87c2.561,8.877-3.499,18.677-13.827,21.254C168.582,43.088,175.494,34.639,176.86,26.87z"/>
		<path fill="#BC3027" d="M172.081,22.552c1.28,9.696-9.816,26.682-21.338,29.583C159.619,43.6,167.983,32.591,172.081,22.552z"/>
		<path fill="#BC3027" d="M165.68,21.066c-2.646,7.683-11.779,16.857-20.826,23.9C146.56,33.613,156.973,23.969,165.68,21.066z"/>
		<path fill="#BC3027" d="M164.74,14.408c-20.57,12.462-28.593,30.046-33.798,48.994C128.124,41.68,142.806,17.396,164.74,14.408z"
			/>
		<path fill="#84181B" d="M131.945,81.401c0.596-21.455,10.592-33.163,26.65-44.801c-2.902,2.987-3.755,4.694-4.267,5.769
			c-0.854,3.962-2.391,7.376-4.78,10.876c10.753,0,19.716-5.036,29.702-15.902c-1.804,3.441-4.95,7.624-8.023,9.586
			c0,2.731-0.085,5.206-0.986,8.279c10.334-1.109,15.155-5.548,19.936-15.704c-0.427,2.048-0.599,3.754-0.4,6.063
			c1.596,10.751,7.825,17.836,13.709,21.932c2.593-5.486,4.871-12.119,5.896-22.021c0.122,7.768-0.684,13.229-1.537,18.265
			c-2.048,2.732-2.295,3.865-3.073,6.659c-8.364-3.585-14.51-14.853-15.704-23.728c-4.269,7.511-10.165,10.241-22.363,10.583
			c2.134-2.561,3.329-6.061,2.562-9.048c-4.353,3.67-13.23,7.682-21.679,5.804c3.499-3.841,5.205-7.169,4.95-10.242
			C140.66,52.615,134.49,65.666,131.945,81.401z"/>
	</g>
	<g>
		<path fill="#F16966" d="M151.191,97.85c6.961-1.818,18.611,0.634,23.288,4.737C169.341,117.912,151.512,116.639,151.191,97.85z"/>
		<path fill="#771120" d="M151.191,97.85c7.379,2.57,16.251,4.203,23.288,4.737C168.935,116.271,153.148,115.718,151.191,97.85z"/>
		<path fill="#E0464B" d="M156.852,110.045c4.006,3.151,9.302,2.684,13.372-1.083C166.8,106.645,160.231,107.914,156.852,110.045z"
			/>
		<path fill="#D4DBC8" d="M151.79,98.055c3.947,8.531,16.701,9.35,22.226,5.59c0.162-0.344,0.316-0.695,0.464-1.058
			C167.632,102.066,159.046,100.506,151.79,98.055z"/>
		<path fill="#FFFFFF" d="M170.285,105.246c-2.935-2.453-10.176-4.291-15.691-3.398C158.773,105.63,165.395,106.49,170.285,105.246z
			"/>
	</g>
</g>
</svg>
