<?xml version="1.0" encoding="utf-8"?>
<!-- Generator: Adobe Illustrator 16.0.0, SVG Export Plug-In . SVG Version: 6.00 Build 0)  -->
<!DOCTYPE svg PUBLIC "-//W3C//DTD SVG 1.1//EN" "http://www.w3.org/Graphics/SVG/1.1/DTD/svg11.dtd">
<svg version="1.1" id="Layer_1" xmlns="http://www.w3.org/2000/svg" xmlns:xlink="http://www.w3.org/1999/xlink" x="0px" y="0px"
	 width="300px" height="300px" viewBox="0 0 300 300" enable-background="new 0 0 300 300" xml:space="preserve">
<g>
	<g>
		<path fill="#84181B" d="M102.123,60.251c-31.047,0.006-37.276,49.799-20.845,80.761c16.432,30.964,3.108,42.78-12.92,42.244
			c0.511,6.845,17.355,17.369,39.305,8.422c21.95-8.948,52.769-57.377,42.209-72.594C139.311,103.867,102.123,60.251,102.123,60.251
			z"/>
		<path fill="#650C11" d="M100.007,102.208c3.068,11.311,13.062,35.915,9.849,49.129c-3.213,13.213,28.824,5.131,28.824,5.131
			l4.415-37.568L100.007,102.208z"/>
		<path fill="#128389" d="M97.321,247.896c5.214-10.535,9.562-17.825,14.633-30.954c9.707,35.135,12.349,59.201,4.045,83.058h89.292
			c-7.971-27.18-12.673-65.997-11.094-87.041c6.127,7.51,16.072,19.077,21.668,24.924c10.89,11.38,22.347,11.721,30.401-8.764
			c3.909-9.941-10.55-26.516-16.563-32.775c-6.012-6.259-17.697-25.036-23.255-34.71c-5.559-9.674-22.688-35.508-39.023-23.574
			c-3.433,6.092-8.396,15.825-15.199,21.753c-7.78-5.631-19.393-15.049-26.294-19.333c-12.844-3.713-20.104,1.807-29.18,15.69
			c-7.542,11.539-13.045,34.675-22.915,53.738c-3.466,6.695-8.669,20.917-8.395,33.436C76.107,263.145,90.821,261.03,97.321,247.896
			z"/>
		<path fill="#A82224" d="M80.095,85.545c-7.176,11.84-6.989,34.428,4.267,52.457C79.746,120.482,77.407,102.125,80.095,85.545z"/>
		<path fill="#A82224" d="M85.468,95.507c-4.478,13.108,0.532,35.131,15.38,50.32C92.594,129.707,86.386,112.279,85.468,95.507z"/>
		<path fill="#165C62" d="M246.268,229.119c2.806-7.131-3.843-17.678-10.046-25.379h-4.928
			c-18.377-10.813-44.835-35.581-51.956-56.532c0.794,12.604,4.777,18.296,11.603,26.832c15.283,19.115,8.703,33.796,3.258,38.919
			c6.127,7.51,16.072,19.077,21.668,24.924C226.756,249.263,238.213,249.604,246.268,229.119z"/>
		<path fill="#165C62" d="M96.753,156.17c-7.542,11.539-13.045,34.675-22.915,53.738c-3.466,6.695-8.669,20.917-8.395,33.436
			c10.664,19.801,25.377,17.687,31.877,4.553c2.687-5.429,5.144-9.998,7.588-14.947c-21.396-19.232-12.941-67.622,3.864-90.494
			C104.674,145.223,100.903,149.82,96.753,156.17z"/>
		<path fill="#165C62" d="M116,300h29.161c-15.879-29.805,1.28-69.886,31.002-79.759c-25.411-0.115-40.928-5.349-51.957-28.563
			c-3.856,9.673-7.713,16.796-12.25,25.265C121.661,252.077,124.304,276.144,116,300z"/>
		<path fill="#124C50" d="M111.955,216.942c6.693-14.909,9.87-27.771,9.983-40.744c1.271,8.32,1.698,11.827,0.108,18.746
			c3.088-5.886,4.113-10.645,5.337-14.307C127.625,189.628,121.484,203.398,111.955,216.942z"/>
		<path fill="#CBD7CC" d="M129.879,136.767c5.672-3.084,22.349-3.175,30.345-2.162c6.937,0.878,6.864,12.858-3.403,13.258
			c-10.266,0.398-19.625,0.001-23.992-2.333C128.461,143.196,126.876,138.398,129.879,136.767z"/>
		<path fill="#F8AD84" d="M133.395,128.972c0.242,1.838,0.397,14.624,0.284,17.184c-0.113,2.562,16.052,10.243,18.549,13.657
			c6.749-5.35,10.322-16.217,10.322-16.217s-4.027,1.193-4.651-1.992c-0.623-3.186-0.851-10.243-0.51-12.12
			C157.729,127.605,133.395,128.972,133.395,128.972z"/>
		<path fill="#F08262" d="M157.277,134.965c-0.088-2.362-0.058-4.554,0.111-5.481c0.341-1.878-23.994-0.512-23.994-0.512
			c0.092,0.698,0.172,2.977,0.229,5.674C141.629,139.114,150.386,139.163,157.277,134.965z"/>
		<path fill="#FABF8E" d="M105.942,103.137c2.671,10.247,19.707,33.235,46.285,29.362c27.338-3.983,30.061-34.791,28.473-45.222
			c-1.589-10.429-5.672-33.53-15.883-37.06c-10.209-3.527-51.047-9.672-58.761,11.95C98.342,83.791,104.015,95.74,105.942,103.137z"
			/>
		<path fill="#F8AA7F" d="M156.65,84.53c-3.176-4.097-5.054-16.046,2.038-16.217c7.094-0.171,11.178,5.625,12.284,12.485
			C166.842,86.522,156.65,84.53,156.65,84.53z"/>
		<path fill="#F8AA7F" d="M134.699,88.57c1.361-4.951-1.701-13.826-4.253-14.748c-2.496,0.352-7.62,1.603-9.358,2.173
			c-5.956,1.952-9.585,13.786-3.063,17.506C123.46,96.602,132.431,93.115,134.699,88.57z"/>
		<path fill="#FFFFFF" d="M134.076,88.628c-2.155,5.007-11.061,5.235-15.032,3.527c-0.51-2.561,0.363-8.561,5.616-9.673
			C130.843,81.173,133.962,86.636,134.076,88.628z"/>
		<ellipse fill="#922D49" cx="126.837" cy="87.699" rx="4.076" ry="4.088"/>
		<path opacity="0.3" fill="#231F20" d="M124.66,82.482c-5.252,1.112-6.125,7.112-5.616,9.673c2.979-6.7,11.429-8.155,15.032-3.527
			C133.962,86.636,130.843,81.173,124.66,82.482z"/>
		<path fill="#5E092D" d="M133.879,87.699c-2.255-8.177-10.198-5.89-12.566-4.477c-1.394,0.831-2.395,2.445-4.651-0.262
			c0.212,1.3,1.249,2.07,1.929,2.707c-1.478-0.1-2.694-0.598-4.311-1.763c1.277,2.723,2.833,2.916,4.141,3.356
			c0.057,0.626-0.27,2.59,0.623,4.894c-0.126-5.377,3.139-8.61,6.722-9.006C130.178,82.662,132.433,85.153,133.879,87.699z"/>
		<path fill="#D46B53" d="M119.98,83.319c1.617-3.797,7.402-4.991,11.103-1.146C127.382,80.012,123.086,80.012,119.98,83.319z"/>
		<path fill="#D46B53" d="M155.963,77.947c1.617-5.248,6.431-7.344,10.515-4.125C162.564,72.294,158.559,73.211,155.963,77.947z"/>
		<path fill="#FFFFFF" d="M156.65,84.53c-2.51-10.708,11.783-12.518,14.181-3.528C169.667,84.889,161.695,87.291,156.65,84.53z"/>
		<ellipse fill="#922D49" cx="162.765" cy="80.799" rx="4.077" ry="4.09"/>
		<path opacity="0.3" fill="#231F20" d="M156.435,83.315c2.856-5.541,10.408-5.366,14.043-1.5l0,0
			c0.149-0.263,0.27-0.533,0.354-0.813C168.527,72.364,155.244,73.699,156.435,83.315z"/>
		<path fill="#5E092D" d="M156.39,82.909c-1.044-6.487,4.69-9.163,9.233-8.015c1.38,0.349,2.06-0.321,3.109-1.403
			c-0.284,1.167-0.512,1.537-1.078,2.134c1.391-0.381,2.298-1.166,3.318-2.475c-0.424,1.379-1.102,2.437-2.128,3.414
			c1.114,1.438,1.694,2.59,1.998,4.154C166.842,73.822,157.203,74.061,156.39,82.909z"/>
		<path fill="#B43026" d="M132.998,71.044c-4.466,2.778-9.827,4.169-15.881,4.895C124.08,77.772,131.935,75.682,132.998,71.044z"/>
		<path fill="#B43026" d="M150.695,66.265c3.616,1.138,9.061,1.266,13.386,0C161.841,69.963,152.906,69.921,150.695,66.265z"/>
		<path fill="#BD4C35" d="M151.432,101.886c5.517-3.543,4.876-7.728,0.434-9.169c-4.233-1.372-5.298-5.299-7.254-16.722
			c3.276,12.191,4.258,14.657,7.646,15.704C158.012,93.479,158.267,99.325,151.432,101.886z"/>
		<path fill="#BD4C35" d="M145.023,102.208c1.157-0.623,1.702-1.289,2.382-0.891c0.681,0.397,1.161-0.946,0.511-1.082
			C146.824,100.008,145.208,100.776,145.023,102.208z"/>
		<path fill="#F16966" d="M143.094,118.899c-2.184-13.003,17.896-18.294,17.129-4.21
			C157.075,116.438,149.716,118.316,143.094,118.899z"/>
		<circle fill="#FFFFFF" cx="125.057" cy="89.808" r="0.709"/>
		<circle fill="#FFFFFF" cx="129.297" cy="87.589" r="1.532"/>
		<circle fill="#FFFFFF" cx="160.985" cy="82.909" r="0.71"/>
		<circle fill="#FFFFFF" cx="165.225" cy="80.69" r="1.532"/>
		<path fill="#E0464B" d="M160.224,114.689c-1.021-10.328-16.846-7.726-17.129,4.21
			C148.224,120.279,157.757,118.018,160.224,114.689z"/>
		<path fill="#771120" d="M143.094,118.899c0.266,0.071,0.542,0.132,0.83,0.185c4.3-5.302,11.664-5.548,15.229-3.326
			c0.435-0.342,0.796-0.698,1.071-1.068C159.203,104.361,143.378,106.964,143.094,118.899z"/>
		<path fill="#D46B53" d="M150.185,122.541c1.138-2.039,4.367-2.447,5.956-1.064C153.841,121.249,151.893,121.604,150.185,122.541z"
			/>
		<path fill="#E9E4DC" d="M152.228,159.813c-3.064-4.496-14.351-12.689-19.569-17.299c-2.334-2.062-3.914-3.869-2.779-5.747
			c-2.75,1.394-6.807,5.349-3.517,10.641c3.818,6.142,7.033,8.251,12.592,12.063c-0.567-4.894,1.928-6.03,5.842-4.097
			C147.876,156.896,149.447,158.048,152.228,159.813z"/>
		<path fill="#E9E4DC" d="M152.228,159.813c7.68-9.049,12.307-23.615,7.996-25.208c11.231,0,11.231,10.128,3.403,23.613
			C163.003,152.927,159.146,154.975,152.228,159.813z"/>
		<path fill="#F59B6F" d="M110.537,69.023c0,0-1.959-3.359-5.271-4.527c-6.513,20.159-1.181,31.515,0.676,38.641
			c2.671,10.247,19.707,33.235,46.285,29.362c3.185-0.464,6.036-1.293,8.586-2.41C130.615,134.977,108.063,111.282,110.537,69.023z"
			/>
		<path fill="#D4DBC8" d="M144.614,113.16c5.571,0.45,11.355-0.715,13.702-3.082C154.854,106.508,147.734,107.84,144.614,113.16z"/>
		<path fill="#FFFFFF" d="M156.406,111.41c-2.874-2.007-7.616-1.259-9.436,1.844C150.574,113.256,154.052,112.604,156.406,111.41z"
			/>
		<path fill="#F8AA7F" d="M146.623,95.969c-3.494-0.605-5.642,2.747-3.494,5.232C142.342,98.213,143.915,96.514,146.623,95.969z"/>
		<g>
			<path fill="#FAB684" d="M27.895,173.81c-9.755-0.285-14.009-3.187-9.925-6.014c2.042,0.437,4.032,1.33,9.132,1.12
				c6.919-0.284,14.238-1.041,19.51,3.983c2.13,2.03,5.405,5.549,9.29,10.502c11.245,14.336,25.977,29.156,32.321,41.94
				c11.083,22.327-1.593,43.751-19.983,21.15c-12.475-15.331-18.195-33.818-24.691-56.409c-4.707,1.878-7.827,3.074-12.933,3.415
				c-3.055,0.204-4.899,0.67-6.807,1.308c-3.231,1.083-7.655,1.708-11.117,1.423c-2.839-0.234-2.24-3.465,0.681-3.869
				c3.934-0.544,7.262-1.591,9.667-2.892c-4.689,0.373-9.156,1.186-15.633,1.313c-3.332,0.065-5.264-2.519-2.883-4.794
				c-6.351,0.853-5.376-4.821-1.019-5.122c3.565-0.246,4.94-0.408,7.713-0.796c-1.643-0.057-4.5-0.278-6.125-0.797
				c-2.496-0.796-1.929-4.666,2.494-4.325c5.121,0.396,13.389,1.179,15.314,1.024C25.741,175.744,26.988,175.063,27.895,173.81z"/>
			<path fill="#F69868" d="M40.885,179.557c-3.177-0.107-5.942,1.409-7.317,3.699C35.198,181.947,38.133,180.221,40.885,179.557z"/>
			<path fill="#F69868" d="M88.223,225.342c-3.827-7.714-10.708-16.168-18.035-24.81c12.941,21.779,21.964,49.091,11.057,55.44
				C91.657,257.75,96.389,241.791,88.223,225.342z"/>
			<path fill="#F69868" d="M53.787,180.77c-0.815-0.989-1.592-1.9-2.329-2.744c-0.055,1.526-0.465,3.021-0.817,4.661
				c-0.624,2.902-4.972,4.043-7.941,5.69c-2.666,1.479-7.601,3.242-10.664,3.698s-6.182,0.683-9.529,1.764
				c-2.606,0.843-5.956,1.65-8.905,1.423c-1.839-0.142-2.173-1.205-1.917-2.199c-1.32,1.084-1.148,2.988,1.007,3.166
				c3.462,0.285,7.886-0.34,11.117-1.423c1.907-0.638,3.752-1.104,6.807-1.308c5.106-0.341,8.226-1.537,12.933-3.415
				c2.211,7.691,4.333,14.905,6.661,21.683C49.444,202.043,49.428,184.931,53.787,180.77z"/>
			<path fill="#F69868" d="M19.173,188.491c-3.013,0.452-8.056,0.855-11.082,0.977c-2.927,0.118-4.674-1.277-3.567-3.48
				c-2.38,2.275-0.448,4.859,2.883,4.794c6.478-0.128,10.944-0.94,15.633-1.313c1.097-0.352,3.337-1.262,3.848-1.475
				C23.739,187.938,21.409,188.155,19.173,188.491z"/>
			<path fill="#F69868" d="M12.865,183.91c-4.773,0.411-7.702,0.612-8.806,0.64c-2.759,0.071-4.074-1.157-2.998-2.749
				c-1.969,1.656-1.407,4.841,3.464,4.187c0.768-0.499,2.096-0.783,3.831-0.968c3.221-0.342,6.806-0.342,9.529-0.726
				c2.722-0.384,7.047-0.938,8.819-1.366C21.628,183.009,17.176,183.539,12.865,183.91z"/>
			<path fill="#F69868" d="M14.269,179.002c-2.391,0.096-5.51-0.239-7.473-0.751c-1.839-0.479-2.532-2.013-1.479-3.03
				c-2.253,0.87-2.198,3.422-0.223,4.052c1.625,0.519,4.482,0.74,6.125,0.797c2.326-0.17,5.899-0.447,9.586-0.585
				c2.153-0.081,4.65-0.497,5.898-0.668C21.659,178.848,17.459,178.873,14.269,179.002z"/>
			<path fill="#F69868" d="M44.004,177.053c-5.898,1.313-9.875,0.479-15.087-3.528c-1.872-0.17-6.637-0.796-9.359-1.934
				c-2.19-0.916-2.394-1.983-1.994-3.491c-3.301,2.676,0.764,5.332,9.799,5.691c0.211-0.023,0.392-0.039,0.532-0.038
				C31.752,177.225,37.368,179.899,44.004,177.053z"/>
		</g>
		<g>
			<path fill="#FAB684" d="M270.619,151.803c9.499-2.25,13.083-5.953,8.515-7.896c-1.911,0.841-3.683,2.117-8.72,2.943
				c-6.835,1.121-14.155,1.857-18.31,7.845c-1.679,2.42-4.181,6.527-6.991,12.164c-8.134,16.314-19.589,33.809-23.236,47.613
				c-6.37,24.109,10.35,42.53,23.822,16.678c9.141-17.538,11.031-36.802,12.857-60.243c4.985,0.89,8.282,1.429,13.352,0.73
				c3.033-0.417,4.934-0.334,6.93-0.094c3.383,0.406,7.841,0.125,11.176-0.854c2.732-0.803,1.498-3.847-1.444-3.651
				c-3.964,0.262-7.433-0.092-10.051-0.879c4.668-0.581,9.206-0.69,15.576-1.874c3.276-0.609,4.651-3.53,1.861-5.279
				c6.392-0.447,4.299-5.808-0.031-5.222c-3.54,0.48-4.92,0.601-7.715,0.779c1.598-0.387,4.353-1.182,5.84-2.018
				c2.285-1.286,0.952-4.962-3.312-3.733c-4.937,1.423-12.878,3.861-14.794,4.1C273.119,153.262,271.76,152.846,270.619,151.803z"/>
			<path fill="#F69868" d="M259.051,160.059c3.09-0.75,6.103,0.178,7.91,2.144C265.1,161.25,261.879,160.152,259.051,160.059z"/>
			<path fill="#F69868" d="M221.877,214.472c2.201-8.328,7.244-18.001,12.684-27.945c-8.301,23.948-11.653,52.523,0.305,56.538
				C225.024,246.909,217.184,232.235,221.877,214.472z"/>
			<path fill="#F69868" d="M246.657,163.854c0.599-1.133,1.177-2.184,1.729-3.158c0.36,1.483,1.063,2.866,1.738,4.399
				c1.193,2.717,5.683,2.956,8.921,3.969c2.907,0.91,8.096,1.641,11.187,1.468c3.092-0.173,6.193-0.581,9.688-0.198
				c2.722,0.298,6.165,0.412,9.008-0.406c1.773-0.512,1.887-1.622,1.437-2.542c1.51,0.795,1.724,2.694-0.351,3.305
				c-3.335,0.979-7.793,1.26-11.176,0.854c-1.996-0.24-3.896-0.323-6.93,0.094c-5.069,0.698-8.366,0.159-13.352-0.73
				c-0.623,7.98-1.252,15.477-2.172,22.584C255.183,183.813,251.762,167.048,246.657,163.854z"/>
			<path fill="#F69868" d="M282.111,164.421c3.041-0.167,8.063-0.79,11.051-1.283c2.891-0.476,4.321-2.196,2.794-4.132
				c2.79,1.749,1.415,4.67-1.861,5.279c-6.37,1.184-10.908,1.293-15.576,1.874c-1.145-0.122-3.522-0.562-4.064-0.668
				C277.527,164.802,279.854,164.544,282.111,164.421z"/>
			<path fill="#F69868" d="M287.37,158.657c4.758-0.562,7.667-0.957,8.754-1.152c2.718-0.488,3.759-1.956,2.385-3.299
				c2.26,1.223,2.35,4.458-2.553,4.8c-0.852-0.332-2.21-0.343-3.946-0.173c-3.225,0.316-6.735,1.042-9.479,1.216
				c-2.744,0.173-7.092,0.505-8.914,0.445C278.606,159.546,283.073,159.166,287.37,158.657z"/>
			<path fill="#F69868" d="M285.009,154.135c2.361-0.39,5.35-1.35,7.169-2.246c1.706-0.841,2.077-2.483,0.841-3.269
				c2.381,0.397,2.839,2.909,1.031,3.926c-1.487,0.836-4.242,1.631-5.84,2.018c-2.312,0.303-5.868,0.754-9.507,1.364
				c-2.125,0.356-4.654,0.455-5.911,0.54C277.739,155.477,281.858,154.654,285.009,154.135z"/>
			<path fill="#F69868" d="M255.492,158.236c6.042,0.094,9.77-1.529,14.07-6.505c1.799-0.546,6.34-2.122,8.778-3.787
				c1.96-1.34,1.946-2.427,1.252-3.822c3.771,1.954,0.323,5.377-8.456,7.555c-0.211,0.02-0.391,0.042-0.529,0.071
				C267.527,155.927,262.564,159.682,255.492,158.236z"/>
		</g>
		<g>
			<path fill="#A82224" d="M115.208,119.742c-20.079-5.805-38.864-33.97-34.883-53.773c4.084-20.314,14.293-35.676,22.972-34.482
				c1.531-9.559,38.223-23.778,59.897-10.071c23.482,14.851,33.182,60.259,19.398,84.499c-0.341-23.557-5.955-43.188-21.951-55.138
				c-0.255,3.073,1.446,6.401,4.936,10.242c-8.424,1.878-17.272-2.134-21.611-5.804c-0.765,2.988,0.425,6.486,2.553,9.047
				c-12.159-0.341-18.038-3.071-22.292-10.584c-1.191,8.877-7.317,20.145-15.655,23.729c-0.775-2.794-1.021-3.927-3.063-6.658
				C103.978,82.869,102.617,108.133,115.208,119.742z"/>
			<path fill="#BC3027" d="M114.188,30.974c-9.784,5.89-11.231,24.839-4.595,35.422C108.572,54.361,110.104,38.912,114.188,30.974z"
				/>
			<path fill="#BC3027" d="M104.404,36.863c-14.208,11.267-18.377,45.323-4.169,62.821C94.79,78.772,94.96,54.275,104.404,36.863z"
				/>
			<path fill="#BC3027" d="M117.676,36.83c-5.53,5.24-4.523,19.153-1.556,25.088C119.803,55.897,119.795,41.814,117.676,36.83z"/>
			<path fill="#BC3027" d="M125.164,29.609c-2.638,14.168,2.341,28.55,15.74,30.642C133.756,50.18,127.715,38.486,125.164,29.609z"
				/>
			<path fill="#BC3027" d="M136.394,33.876c-2.552,8.878,3.489,18.677,13.784,21.253C144.646,50.094,137.754,41.645,136.394,33.876z
				"/>
			<path fill="#BC3027" d="M141.159,29.557c-1.276,9.697,9.784,26.682,21.269,29.584C153.58,50.606,145.242,39.596,141.159,29.557z"
				/>
			<path fill="#BC3027" d="M147.54,28.072c2.638,7.682,11.742,16.857,20.759,23.898C166.598,40.619,156.218,30.974,147.54,28.072z"
				/>
			<path fill="#BC3027" d="M148.475,21.415c20.504,12.461,28.501,30.044,33.691,48.991
				C184.975,48.686,170.341,24.402,148.475,21.415z"/>
			<path fill="#84181B" d="M181.167,88.407c-0.593-21.455-10.56-33.163-26.566-44.802c2.893,2.989,3.744,4.695,4.254,5.77
				c0.851,3.963,2.383,7.377,4.765,10.876c-10.72,0-19.653-5.036-29.608-15.902c1.799,3.44,4.935,7.622,7.998,9.586
				c0,2.73,0.085,5.206,0.985,8.278c-10.301-1.109-15.108-5.548-19.873-15.704c0.426,2.049,0.596,3.755,0.399,6.063
				c-1.591,10.753-7.801,17.835-13.665,21.933c-2.585-5.485-4.857-12.119-5.878-22.021c-0.123,7.768,0.681,13.229,1.532,18.266
				c2.042,2.731,2.288,3.864,3.063,6.658c8.338-3.585,14.463-14.853,15.655-23.729c4.254,7.513,10.132,10.243,22.292,10.584
				c-2.127-2.561-3.318-6.059-2.553-9.047c4.339,3.67,13.188,7.682,21.611,5.804c-3.489-3.841-5.19-7.169-4.936-10.242
				C172.479,59.62,178.631,72.672,181.167,88.407z"/>
		</g>
	</g>
	<g>
		<path fill="#165C62" d="M256.612,62.288c1.111-1.268,2.174-2.337,3.188-3.211c1.013-0.873,2.055-1.582,3.123-2.124
			c1.07-0.543,2.188-0.937,3.356-1.179c1.167-0.241,2.469-0.372,3.904-0.394c1.121-0.002,2.184-0.03,3.188-0.086
			c1.003-0.056,1.934-0.176,2.789-0.362c0.855-0.188,1.646-0.479,2.375-0.878c0.728-0.397,1.387-0.931,1.976-1.603
			c1.388-1.583,2.06-3.089,2.012-4.518c-0.048-1.431-0.785-2.777-2.215-4.039c-0.576-0.509-1.215-0.915-1.917-1.222
			c-0.703-0.307-1.439-0.453-2.21-0.438c-0.77,0.014-1.55,0.208-2.342,0.585c-0.791,0.375-1.563,0.974-2.317,1.796l-8.075-7.131
			c1.734-1.939,3.561-3.326,5.479-4.161c1.917-0.833,3.852-1.217,5.801-1.148c1.949,0.069,3.89,0.551,5.822,1.447
			c1.932,0.896,3.779,2.123,5.543,3.681c1.949,1.721,3.482,3.503,4.598,5.348c1.117,1.845,1.799,3.695,2.048,5.552
			c0.25,1.856,0.057,3.719-0.577,5.587c-0.634,1.869-1.721,3.679-3.257,5.43c-1.077,1.229-2.234,2.173-3.473,2.832
			c-1.237,0.659-2.557,1.148-3.955,1.467c-1.399,0.317-2.861,0.521-4.39,0.609c-1.528,0.09-3.113,0.15-4.758,0.186
			c-0.945,0.026-1.803,0.129-2.57,0.311c-0.769,0.181-1.492,0.442-2.171,0.784c-0.68,0.343-1.326,0.779-1.941,1.311
			c-0.613,0.532-1.249,1.153-1.905,1.863L256.612,62.288z M248.28,70.149c0.54-0.613,1.146-1.087,1.815-1.42
			c0.671-0.334,1.37-0.519,2.095-0.557c0.724-0.037,1.464,0.078,2.216,0.347c0.753,0.269,1.474,0.705,2.16,1.312
			c0.688,0.606,1.21,1.268,1.571,1.982c0.361,0.716,0.568,1.436,0.625,2.162c0.055,0.726-0.041,1.444-0.284,2.154
			c-0.245,0.71-0.637,1.372-1.175,1.987c-0.522,0.595-1.12,1.059-1.791,1.394c-0.671,0.332-1.368,0.518-2.094,0.556
			c-0.725,0.037-1.46-0.083-2.204-0.36c-0.746-0.277-1.46-0.721-2.147-1.326c-0.688-0.606-1.216-1.263-1.585-1.969
			s-0.58-1.422-0.636-2.147c-0.056-0.727,0.04-1.445,0.283-2.154C247.375,71.399,247.758,70.746,248.28,70.149z"/>
	</g>
	<g>
		<path fill="#165C62" d="M222.812,43.116c0.498-1.612,1.031-3.024,1.601-4.238c0.568-1.212,1.23-2.286,1.983-3.22
			c0.756-0.934,1.616-1.752,2.584-2.451c0.966-0.699,2.101-1.354,3.401-1.962c1.021-0.461,1.98-0.923,2.874-1.387
			c0.893-0.463,1.693-0.953,2.397-1.475c0.705-0.522,1.308-1.112,1.811-1.775c0.502-0.661,0.885-1.419,1.148-2.272
			c0.622-2.015,0.62-3.665-0.005-4.949c-0.627-1.286-1.85-2.211-3.668-2.776c-0.732-0.229-1.481-0.337-2.249-0.328
			c-0.765,0.009-1.497,0.177-2.194,0.506c-0.696,0.328-1.329,0.827-1.899,1.494c-0.567,0.667-1.028,1.531-1.381,2.589l-10.275-3.192
			c0.791-2.481,1.893-4.496,3.303-6.045c1.41-1.548,3.019-2.691,4.825-3.429s3.774-1.093,5.903-1.067
			c2.128,0.024,4.314,0.387,6.559,1.083c2.48,0.771,4.606,1.769,6.376,2.994s3.148,2.635,4.132,4.227
			c0.984,1.591,1.569,3.37,1.75,5.335c0.183,1.966-0.07,4.063-0.758,6.291c-0.482,1.563-1.154,2.899-2.015,4.009
			s-1.864,2.098-3.011,2.961c-1.147,0.864-2.399,1.65-3.757,2.358c-1.358,0.708-2.78,1.415-4.268,2.122
			c-0.852,0.411-1.592,0.855-2.218,1.336c-0.628,0.481-1.182,1.017-1.662,1.607c-0.479,0.591-0.892,1.255-1.236,1.992
			s-0.671,1.563-0.979,2.482L222.812,43.116z M218.414,53.709c0.242-0.782,0.602-1.462,1.078-2.042
			c0.476-0.579,1.038-1.034,1.684-1.366c0.646-0.331,1.367-0.529,2.163-0.593c0.798-0.064,1.633,0.039,2.506,0.311
			c0.875,0.271,1.622,0.66,2.243,1.165c0.621,0.504,1.104,1.076,1.451,1.716c0.346,0.641,0.552,1.334,0.619,2.082
			c0.065,0.749-0.021,1.514-0.262,2.296c-0.235,0.758-0.59,1.427-1.067,2.007c-0.477,0.578-1.037,1.033-1.684,1.366
			c-0.646,0.331-1.366,0.523-2.158,0.575c-0.794,0.053-1.627-0.059-2.501-0.33c-0.874-0.271-1.624-0.652-2.248-1.146
			s-1.109-1.06-1.455-1.698c-0.347-0.642-0.553-1.336-0.62-2.083C218.097,55.221,218.18,54.468,218.414,53.709z"/>
	</g>
</g>
</svg>
